<svg width="34" height="33" viewBox="0 0 34 33" fill="none" xmlns="http://www.w3.org/2000/svg">
<path d="M33.4943 28.5152C33.4943 30.8613 31.5899 32.7615 29.2387 32.7615H5.19713C2.84591 32.7615 0.941559 30.8613 0.941559 28.5152V4.51955C0.941559 2.17349 2.84591 0.273315 5.19713 0.273315H29.2387C31.5899 0.273315 33.4943 2.17349 33.4943 4.51955V28.5152Z" fill="#A358D1" stroke="#21759B" stroke-width="0.126716" stroke-miterlimit="10"/>
<path fill-rule="evenodd" clip-rule="evenodd" d="M6.74432 6.77094H27.6913C29.1066 6.77094 30.2389 7.91758 30.2389 9.35088V23.6839C30.2389 25.1172 29.1066 26.2638 27.6913 26.2638H6.74432C5.32899 26.2638 4.19672 25.1172 4.19672 23.6839V9.35088C4.19672 7.91758 5.32899 6.77094 6.74432 6.77094ZM21.9167 16.0587L18.2369 13.9374L14.557 11.7588C14.3871 11.7015 14.2173 11.7015 14.0475 11.7588C13.8776 11.8735 13.821 12.0455 13.821 12.2175V20.8173C13.821 20.9893 13.8776 21.1613 14.0475 21.2759C14.2173 21.3333 14.3871 21.3333 14.557 21.2759L18.2369 19.0973L21.9167 16.976C22.0866 16.8614 22.1432 16.6894 22.1432 16.5174C22.1432 16.3454 22.0866 16.1734 21.9167 16.0587ZM6.46125 9.06422H9.29193V11.9308H6.46125V9.06422ZM6.46125 13.0775H9.29193V15.9441H6.46125V13.0775ZM6.46125 17.0907H9.29193V19.9573H6.46125V17.0907ZM6.46125 21.1039H9.29193V23.9705H6.46125V21.1039ZM25.2003 9.06422H28.031V11.9308H25.2003V9.06422ZM25.2003 13.0775H28.031V15.9441H25.2003V13.0775ZM25.2003 17.0907H28.031V19.9573H25.2003V17.0907ZM25.2003 21.1039H28.031V23.9705H25.2003V21.1039Z" fill="white"/>
</svg>
